<?xml version="1.0" encoding="UTF-8" standalone="no"?>
<!-- Created with Inkscape (http://www.inkscape.org/) -->

<svg
   xmlns:dc="http://purl.org/dc/elements/1.1/"
   xmlns:cc="http://creativecommons.org/ns#"
   xmlns:rdf="http://www.w3.org/1999/02/22-rdf-syntax-ns#"
   xmlns:svg="http://www.w3.org/2000/svg"
   xmlns="http://www.w3.org/2000/svg"
   xmlns:sodipodi="http://sodipodi.sourceforge.net/DTD/sodipodi-0.dtd"
   xmlns:inkscape="http://www.inkscape.org/namespaces/inkscape"
   id="svg2"
   version="1.1"
   inkscape:version="0.48.4 r9939"
   width="461.27125"
   height="226.465"
   xml:space="preserve"
   sodipodi:docname="Vector Smart Object1.ai"><metadata
     id="metadata8"><rdf:RDF><cc:Work
         rdf:about=""><dc:format>image/svg+xml</dc:format><dc:type
           rdf:resource="http://purl.org/dc/dcmitype/StillImage" /><dc:title></dc:title></cc:Work></rdf:RDF></metadata><defs
     id="defs6"><clipPath
       clipPathUnits="userSpaceOnUse"
       id="clipPath20"><path
         d="m 0,181.172 369.017,0 L 369.017,0 0,0 0,181.172 z"
         id="path22" /></clipPath></defs><sodipodi:namedview
     pagecolor="#ffffff"
     bordercolor="#666666"
     borderopacity="1"
     objecttolerance="10"
     gridtolerance="10"
     guidetolerance="10"
     inkscape:pageopacity="0"
     inkscape:pageshadow="2"
     inkscape:window-width="640"
     inkscape:window-height="480"
     id="namedview4"
     showgrid="false"
     inkscape:zoom="0.56719233"
     inkscape:cx="300.97263"
     inkscape:cy="140.63512"
     inkscape:window-x="0"
     inkscape:window-y="0"
     inkscape:window-maximized="0"
     inkscape:current-layer="g10" /><g
     id="g10"
     inkscape:groupmode="layer"
     inkscape:label="Vector Smart Object1"
     transform="matrix(1.25,0,0,-1.25,0,226.465)"><g
       id="g12"
       transform="translate(137.8359,181.1718)"><path
         d="m 0,0 -91.47,-13.261 0,-40.108 13.264,0 0,28.355 64.944,9.683 0,-150.349 -64.944,9.523 0,28.356 -13.264,0 0,-40.11 L 0,-181.172 0,0 z"
         style="fill:#96989b;fill-opacity:1;fill-rule:nonzero;stroke:none"
         id="path14" /></g><g
       id="g16"><g
         id="g18"
         clip-path="url(#clipPath20)"><g
           id="g24"
           transform="translate(194.765,93.6625)"><path
             d="m 0,0 0,-27.008 c -3.729,-1.871 -7.364,-3.27 -10.896,-4.211 -3.544,-0.955 -6.971,-1.426 -10.292,-1.426 -8.463,0 -15.474,2.785 -21.058,8.369 -5.586,5.586 -8.371,12.635 -8.371,21.137 0,8.594 2.825,15.696 8.488,21.307 5.663,5.624 12.817,8.436 21.489,8.436 3.27,0 6.383,-0.445 9.352,-1.347 2.956,-0.89 5.808,-2.25 8.541,-4.055 L 0.213,18.82 -4.173,7.299 c -2.576,2.602 -5.14,4.512 -7.69,5.716 -2.564,1.215 -5.245,1.817 -8.057,1.817 -4.983,0 -9.103,-1.66 -12.373,-4.996 -3.27,-3.335 -4.905,-7.508 -4.905,-12.504 0,-5.27 1.583,-9.561 4.735,-12.897 3.151,-3.334 7.22,-4.996 12.19,-4.996 1.151,0 2.315,0.105 3.492,0.301 1.177,0.209 2.393,0.498 3.676,0.89 l 0,8.071 -10.517,0 0,11.299 L 0,0 z m 10.999,-30.84 0,55.561 13.263,0 0,-43.634 21.659,0 0,-11.927 -34.922,0 z M 74.446,4.212 59.615,-30.84 l -13.354,0 28.343,57.287 0.836,0 C 80.564,15.855 85.689,5.264 90.813,-5.329 c 4.316,-8.92 13.354,-15.466 23.493,-15.466 2.288,0 4.132,0.509 5.532,1.517 1.387,1.006 2.08,2.301 2.08,3.883 0,2.264 -2.473,4.828 -7.43,7.652 -0.798,0.457 -1.412,0.825 -1.843,1.073 l -3.754,2.119 c -3.65,2.067 -6.357,4.407 -8.11,7.01 -1.765,2.604 -2.641,5.559 -2.641,8.855 0,4.473 1.687,8.135 5.061,11 3.362,2.864 7.717,4.29 13.053,4.29 1.975,0 4.107,-0.235 6.396,-0.694 2.302,-0.457 4.852,-1.177 7.664,-2.144 l 0,-13.014 c -2.681,1.674 -5.218,2.969 -7.625,3.885 -2.407,0.915 -4.447,1.373 -6.134,1.373 -1.87,0 -3.335,-0.406 -4.408,-1.203 -1.072,-0.799 -1.608,-1.897 -1.608,-3.27 0,-0.969 0.314,-1.871 0.954,-2.708 0.641,-0.85 1.596,-1.608 2.878,-2.302 l 6.514,-3.597 c 5.453,-3.022 9.116,-5.807 10.999,-8.358 1.884,-2.563 2.825,-5.584 2.825,-9.09 0,-5.414 -1.844,-9.797 -5.532,-13.131 -3.701,-3.336 -8.594,-4.996 -14.701,-4.996 -2.067,0 -4.317,0.221 -6.749,0.652 -1.593,0.285 -3.073,0.547 -4.823,1.153 l -13.626,0 C 84.187,-19.143 79.254,-7.627 74.446,4.212 m 63.706,-19.357 c 3.414,-2.094 6.318,-3.545 8.711,-4.395 2.381,-0.837 4.709,-1.255 6.985,-1.255 2.289,0 4.132,0.509 5.532,1.517 1.387,1.006 2.08,2.301 2.08,3.883 0,2.264 -2.472,4.828 -7.429,7.652 -0.799,0.457 -1.413,0.825 -1.844,1.073 l -3.754,2.119 c -3.65,2.067 -6.357,4.407 -8.11,7.01 -1.765,2.604 -2.641,5.559 -2.641,8.855 0,4.473 1.687,8.135 5.061,11 3.361,2.864 7.717,4.29 13.054,4.29 1.974,0 4.106,-0.235 6.395,-0.694 2.302,-0.457 4.853,-1.177 7.664,-2.144 l 0,-13.014 c -2.68,1.674 -5.218,2.969 -7.625,3.885 -2.406,0.915 -4.447,1.373 -6.133,1.373 -1.871,0 -3.336,-0.406 -4.409,-1.203 -1.072,-0.799 -1.608,-1.897 -1.608,-3.27 0,-0.969 0.314,-1.871 0.954,-2.708 0.642,-0.85 1.596,-1.608 2.878,-2.302 l 6.514,-3.597 c 5.454,-3.022 9.116,-5.807 10.999,-8.358 1.884,-2.563 2.826,-5.584 2.826,-9.09 0,-5.414 -1.845,-9.797 -5.533,-13.131 -3.701,-3.336 -8.593,-4.996 -14.701,-4.996 -2.067,0 -4.317,0.221 -6.749,0.652 -2.419,0.432 -5.101,1.114 -8.005,2.028 l -1.112,14.82 z m -286.55,39.866 13.263,0 0,-55.561 -13.263,0 0,55.561 z m -45.896,-39.866 c 3.414,-2.094 6.317,-3.545 8.711,-4.395 2.381,-0.837 4.709,-1.255 6.984,-1.255 2.289,0 4.133,0.509 5.533,1.517 1.386,1.006 2.08,2.301 2.08,3.883 0,2.264 -2.472,4.828 -7.429,7.652 -0.798,0.457 -1.413,0.825 -1.845,1.073 l -3.754,2.119 c -3.648,2.067 -6.356,4.407 -8.109,7.01 -1.766,2.604 -2.642,5.559 -2.642,8.855 0,4.473 1.688,8.135 5.062,11 3.361,2.864 7.717,4.29 13.054,4.29 1.974,0 4.106,-0.235 6.395,-0.694 2.302,-0.457 4.853,-1.177 7.664,-2.144 l 0,-13.014 c -2.681,1.674 -5.218,2.969 -7.625,3.885 -2.406,0.915 -4.447,1.373 -6.134,1.373 -1.87,0 -3.336,-0.406 -4.408,-1.203 -1.072,-0.799 -1.608,-1.897 -1.608,-3.27 0,-0.969 0.313,-1.871 0.955,-2.708 0.64,-0.85 1.596,-1.608 2.877,-2.302 l 6.513,-3.597 c 5.455,-3.022 9.117,-5.807 11,-8.358 1.883,-2.563 2.826,-5.584 2.826,-9.09 0,-5.414 -1.845,-9.797 -5.534,-13.131 -3.701,-3.336 -8.592,-4.996 -14.701,-4.996 -2.066,0 -4.315,0.221 -6.749,0.652 -2.419,0.432 -5.1,1.114 -8.004,2.028 l -1.112,14.82 z m 87.613,19.357 c -4.958,-11.671 -9.681,-23.478 -14.832,-35.052 l -13.353,0 28.343,57.287 0.836,0 27.715,-57.287 -13.877,0 -14.832,35.052 z M 80.66,-80.749 c -0.451,0 -0.83,0.155 -1.136,0.465 -0.306,0.311 -0.461,0.688 -0.461,1.143 0,0.445 0.155,0.82 0.464,1.129 0.31,0.31 0.685,0.465 1.133,0.465 0.451,0 0.83,-0.155 1.14,-0.465 0.309,-0.309 0.465,-0.684 0.465,-1.129 0,-0.455 -0.156,-0.832 -0.465,-1.143 -0.31,-0.31 -0.689,-0.465 -1.14,-0.465 m -12.681,3.762 1.884,0.645 c 0.238,-0.836 0.623,-1.475 1.157,-1.912 0.533,-0.44 1.188,-0.657 1.965,-0.657 0.761,0 1.364,0.227 1.815,0.682 0.452,0.451 0.676,1.061 0.676,1.828 0,0.615 -0.185,1.123 -0.551,1.516 -0.365,0.39 -1.179,0.849 -2.441,1.369 -1.459,0.599 -2.489,1.238 -3.085,1.92 -0.599,0.681 -0.899,1.531 -0.899,2.547 0,1.195 0.398,2.179 1.192,2.951 0.794,0.773 1.822,1.158 3.076,1.158 0.85,0 1.624,-0.193 2.322,-0.58 0.698,-0.385 1.334,-0.967 1.907,-1.752 l -1.462,-1.441 c -0.445,0.611 -0.896,1.066 -1.35,1.367 -0.458,0.299 -0.929,0.451 -1.42,0.451 -0.622,0 -1.126,-0.18 -1.512,-0.537 -0.386,-0.356 -0.579,-0.82 -0.579,-1.395 0,-0.457 0.125,-0.851 0.375,-1.187 0.25,-0.334 0.652,-0.639 1.205,-0.916 0.498,-0.248 1.081,-0.508 1.756,-0.787 0.675,-0.28 1.087,-0.465 1.228,-0.557 0.912,-0.59 1.541,-1.185 1.891,-1.789 0.346,-0.6 0.52,-1.367 0.52,-2.299 0,-1.34 -0.428,-2.43 -1.285,-3.275 -0.852,-0.848 -1.959,-1.27 -3.319,-1.27 -1.311,0 -2.414,0.346 -3.314,1.041 -0.895,0.696 -1.481,1.655 -1.752,2.879 m -4.542,-3.603 -5.981,10.22 c -0.135,0.217 -0.28,0.504 -0.435,0.852 -0.155,0.353 -0.335,0.81 -0.55,1.377 0.059,-0.371 0.102,-0.783 0.132,-1.225 0.03,-0.445 0.043,-1.123 0.043,-2.039 l 0,-9.185 -2.134,0 0,15.314 2.249,0 5.751,-9.785 c 0.204,-0.352 0.411,-0.75 0.615,-1.186 0.208,-0.437 0.415,-0.914 0.629,-1.429 -0.072,0.56 -0.125,1.113 -0.161,1.664 -0.036,0.551 -0.053,1.088 -0.053,1.607 l 0,9.129 2.114,0 0,-15.314 -2.219,0 z m -23.583,0 0,15.314 11.343,0 0,-1.996 -9.149,0 0,-4.348 8.616,0 0,-1.935 -8.616,0 0,-5.02 9.149,0 0,-2.015 -11.343,0 z m -2.27,7.965 0.011,-0.061 c 0.019,-0.371 0.029,-0.654 0.029,-0.846 0,-0.679 -0.056,-1.301 -0.168,-1.875 -0.112,-0.572 -0.28,-1.086 -0.497,-1.545 -0.643,-1.31 -1.466,-2.298 -2.467,-2.961 -0.998,-0.66 -2.167,-0.994 -3.508,-0.994 -0.994,0 -1.917,0.192 -2.766,0.571 -0.85,0.378 -1.587,0.927 -2.21,1.65 -0.649,0.744 -1.137,1.598 -1.459,2.553 -0.32,0.955 -0.481,2.025 -0.481,3.216 0,1.17 0.161,2.241 0.488,3.206 0.322,0.968 0.806,1.83 1.449,2.582 0.612,0.707 1.34,1.248 2.19,1.627 0.85,0.375 1.772,0.562 2.766,0.562 1.216,0 2.272,-0.244 3.169,-0.73 0.898,-0.491 1.685,-1.252 2.368,-2.286 l -1.67,-1.351 c -0.465,0.797 -1.008,1.387 -1.631,1.771 -0.625,0.387 -1.356,0.58 -2.193,0.58 -1.409,0 -2.536,-0.539 -3.379,-1.617 -0.843,-1.076 -1.265,-2.525 -1.265,-4.344 0,-1.794 0.428,-3.24 1.285,-4.333 0.856,-1.094 1.976,-1.641 3.359,-1.641 1.212,0 2.21,0.398 3.001,1.199 0.786,0.801 1.208,1.852 1.267,3.149 l -3.873,0 0,1.918 6.185,0 z m -16.273,-7.965 -1.371,3.953 -6.379,0 -1.301,-3.953 -2.259,0 5.615,15.314 2.355,0 5.626,-15.314 -2.286,0 z m -7.18,5.652 5.24,0 -2.625,7.568 -2.615,-7.568 z m -10.926,9.662 c 1.861,0 3.261,-0.375 4.206,-1.129 0.943,-0.754 1.413,-1.875 1.413,-3.359 0,-1.309 -0.365,-2.326 -1.1,-3.057 -0.735,-0.73 -1.837,-1.172 -3.313,-1.328 l 5.875,-6.441 -2.846,0 -5.786,6.441 -1.466,0 0,-6.441 -2.193,0 0,15.314 5.21,0 z m -3.017,-6.974 1.776,0 c 1.735,0 2.934,0.191 3.597,0.572 0.662,0.383 0.991,1.035 0.991,1.953 0,0.949 -0.304,1.611 -0.912,1.978 -0.607,0.37 -1.831,0.555 -3.676,0.555 l -1.776,0 0,-5.058 z m -10.845,6.974 c 1.86,0 3.26,-0.375 4.205,-1.129 0.942,-0.754 1.413,-1.875 1.413,-3.359 0,-1.309 -0.365,-2.326 -1.1,-3.057 -0.735,-0.73 -1.838,-1.172 -3.313,-1.328 l 5.876,-6.441 -2.846,0 -5.787,6.441 -1.466,0 0,-6.441 -2.193,0 0,15.314 5.211,0 z m -3.018,-6.974 1.776,0 c 1.736,0 2.934,0.191 3.596,0.572 0.662,0.383 0.991,1.035 0.991,1.953 0,0.949 -0.302,1.611 -0.912,1.978 -0.606,0.37 -1.831,0.555 -3.675,0.555 l -1.776,0 0,-5.058 z m -16.849,-8.34 0,15.314 11.341,0 0,-1.996 -9.148,0 0,-4.348 8.615,0 0,-1.935 -8.615,0 0,-5.02 9.148,0 0,-2.015 -11.341,0 z m -12.938,0 0,15.314 10.71,0 0,-1.996 -8.517,0 0,-4.545 7.963,0 0,-2.016 -7.963,0 0,-6.757 -2.193,0 z m 206.967,22.142 c -0.526,-0.83 -1.133,-1.439 -1.812,-1.834 -0.677,-0.396 -1.464,-0.593 -2.357,-0.593 -1.538,0 -2.747,0.542 -3.627,1.63 -0.879,1.086 -1.316,2.586 -1.316,4.496 0,1.883 0.434,3.375 1.303,4.475 0.867,1.1 2.039,1.65 3.515,1.65 1.498,0 2.674,-0.552 3.526,-1.664 0.854,-1.109 1.279,-2.646 1.279,-4.617 l 0,-0.201 -7.45,0 0,-0.25 c 0,-1.09 0.263,-1.978 0.79,-2.668 0.527,-0.687 1.196,-1.033 1.999,-1.033 0.534,0 1.011,0.135 1.43,0.404 0.418,0.272 0.817,0.703 1.195,1.295 l 1.525,-1.09 z m -6.959,4.785 5.434,0 c -0.095,1.061 -0.378,1.877 -0.843,2.448 -0.467,0.57 -1.087,0.853 -1.861,0.853 -0.777,0 -1.403,-0.287 -1.877,-0.861 -0.471,-0.572 -0.757,-1.385 -0.853,-2.44 m -18.217,-3.293 1.884,0.645 c 0.236,-0.836 0.622,-1.475 1.156,-1.912 0.533,-0.44 1.189,-0.656 1.966,-0.656 0.761,0 1.363,0.226 1.814,0.681 0.452,0.451 0.675,1.061 0.675,1.828 0,0.616 -0.183,1.123 -0.55,1.516 -0.365,0.391 -1.178,0.85 -2.44,1.369 -1.459,0.6 -2.489,1.238 -3.086,1.92 -0.6,0.682 -0.898,1.531 -0.898,2.547 0,1.195 0.398,2.18 1.192,2.949 0.793,0.776 1.821,1.16 3.075,1.16 0.85,0 1.624,-0.193 2.322,-0.58 0.699,-0.385 1.334,-0.969 1.907,-1.752 l -1.462,-1.441 c -0.445,0.611 -0.896,1.066 -1.351,1.365 -0.457,0.301 -0.928,0.451 -1.419,0.451 -0.622,0 -1.126,-0.177 -1.511,-0.535 -0.386,-0.357 -0.581,-0.82 -0.581,-1.394 0,-0.457 0.125,-0.852 0.376,-1.188 0.25,-0.334 0.653,-0.641 1.206,-0.916 0.497,-0.248 1.08,-0.508 1.755,-0.787 0.675,-0.281 1.087,-0.465 1.229,-0.557 0.912,-0.59 1.541,-1.185 1.89,-1.789 0.346,-0.599 0.52,-1.367 0.52,-2.299 0,-1.339 -0.428,-2.429 -1.284,-3.277 -0.853,-0.846 -1.959,-1.267 -3.319,-1.267 -1.312,0 -2.415,0.345 -3.314,1.041 -0.895,0.695 -1.482,1.654 -1.752,2.878 m -7.454,12.047 c 0.972,0 1.848,-0.181 2.635,-0.547 0.783,-0.361 1.462,-0.896 2.035,-1.603 0.609,-0.774 1.066,-1.647 1.373,-2.621 0.307,-0.973 0.458,-2.049 0.458,-3.225 0,-1.193 -0.151,-2.265 -0.454,-3.228 -0.3,-0.961 -0.762,-1.83 -1.377,-2.612 -0.561,-0.695 -1.235,-1.22 -2.025,-1.584 -0.794,-0.365 -1.667,-0.546 -2.625,-0.546 -0.959,0 -1.832,0.181 -2.619,0.546 -0.787,0.364 -1.462,0.889 -2.022,1.584 -0.622,0.787 -1.09,1.664 -1.397,2.635 -0.309,0.973 -0.463,2.045 -0.463,3.225 0,1.17 0.154,2.242 0.463,3.224 0.307,0.981 0.768,1.854 1.377,2.621 0.567,0.7 1.242,1.233 2.023,1.592 0.78,0.358 1.653,0.539 2.618,0.539 m -4.209,-7.976 c 0,-1.842 0.379,-3.297 1.14,-4.367 0.757,-1.071 1.781,-1.608 3.069,-1.608 1.281,0 2.302,0.537 3.066,1.611 0.76,1.073 1.143,2.522 1.143,4.344 0,1.824 -0.383,3.28 -1.143,4.36 -0.764,1.08 -1.785,1.621 -3.066,1.621 -1.281,0 -2.303,-0.537 -3.066,-1.612 -0.761,-1.072 -1.143,-2.525 -1.143,-4.349 m -4.619,-7.674 -2.193,0 0,15.314 2.193,0 0,-15.314 z m -8.106,0 -5.981,10.219 c -0.135,0.218 -0.279,0.504 -0.435,0.853 -0.154,0.354 -0.336,0.811 -0.549,1.377 0.059,-0.373 0.102,-0.783 0.131,-1.224 0.03,-0.446 0.043,-1.124 0.043,-2.04 l 0,-9.185 -2.134,0 0,15.314 2.25,0 5.75,-9.785 c 0.204,-0.351 0.412,-0.75 0.616,-1.185 0.207,-0.438 0.415,-0.916 0.629,-1.43 -0.073,0.561 -0.125,1.113 -0.161,1.664 -0.037,0.549 -0.053,1.086 -0.053,1.607 l 0,9.129 2.114,0 0,-15.314 -2.22,0 z m -12.634,0 -2.193,0 0,15.314 2.193,0 0,-15.314 z m -14.638,0 -2.635,9.254 c -0.026,0.096 -0.065,0.248 -0.125,0.455 -0.398,1.391 -0.679,2.539 -0.84,3.455 -0.075,-0.695 -0.165,-1.363 -0.259,-2.002 -0.096,-0.643 -0.202,-1.266 -0.31,-1.867 l -1.699,-9.295 -2.016,0 3,15.314 2.335,0 3.043,-10.789 c 0.145,-0.552 0.267,-1.037 0.356,-1.455 0.088,-0.42 0.155,-0.801 0.194,-1.15 0.043,0.349 0.109,0.73 0.198,1.15 0.085,0.418 0.207,0.903 0.359,1.455 l 3.023,10.789 2.335,0 3.02,-15.314 -2.015,0 -1.719,9.295 c -0.083,0.439 -0.172,0.976 -0.261,1.603 -0.089,0.629 -0.187,1.383 -0.29,2.266 -0.168,-0.955 -0.454,-2.131 -0.859,-3.533 -0.049,-0.176 -0.089,-0.303 -0.115,-0.387 l -2.625,-9.244 -2.095,0 z m -21.276,15.314 2.193,0 0,-8.558 c 0,-1.684 0.276,-2.949 0.826,-3.791 0.551,-0.844 1.374,-1.266 2.474,-1.266 1.106,0 1.933,0.418 2.48,1.256 0.547,0.836 0.82,2.104 0.82,3.801 l 0,8.558 2.193,0 0,-8.58 c 0,-2.3 -0.467,-4.05 -1.4,-5.252 -0.931,-1.199 -2.298,-1.798 -4.093,-1.798 -1.802,0 -3.168,0.599 -4.097,1.794 -0.933,1.196 -1.396,2.948 -1.396,5.256 l 0,8.58 z m -12.023,-15.314 0,15.314 2.193,0 0,-13.298 8.754,0 0,-2.016 -10.947,0 z m -4.141,0 -1.37,3.951 -6.379,0 -1.3,-3.951 -2.26,0 5.615,15.314 2.355,0 5.626,-15.314 -2.287,0 z m -7.179,5.652 5.24,0 -2.625,7.569 -2.615,-7.569 z m -14.519,-7.115 2.157,6.225 2.506,0 -2.825,-6.225 -1.838,0 z m -9.799,5.066 1.884,0.645 c 0.237,-0.836 0.622,-1.475 1.155,-1.912 0.535,-0.44 1.19,-0.656 1.967,-0.656 0.761,0 1.364,0.226 1.815,0.681 0.451,0.451 0.675,1.061 0.675,1.828 0,0.616 -0.185,1.123 -0.55,1.516 -0.365,0.391 -1.179,0.85 -2.441,1.369 -1.459,0.6 -2.489,1.238 -3.086,1.92 -0.599,0.682 -0.899,1.531 -0.899,2.547 0,1.195 0.399,2.18 1.192,2.949 0.794,0.776 1.822,1.16 3.077,1.16 0.849,0 1.624,-0.193 2.322,-0.58 0.698,-0.385 1.334,-0.969 1.906,-1.752 l -1.462,-1.441 c -0.444,0.611 -0.895,1.066 -1.35,1.365 -0.458,0.301 -0.929,0.451 -1.419,0.451 -0.623,0 -1.127,-0.177 -1.512,-0.535 -0.386,-0.357 -0.58,-0.82 -0.58,-1.394 0,-0.457 0.125,-0.852 0.376,-1.188 0.25,-0.334 0.651,-0.641 1.205,-0.916 0.497,-0.248 1.08,-0.508 1.755,-0.787 0.676,-0.281 1.088,-0.465 1.228,-0.557 0.913,-0.59 1.542,-1.185 1.891,-1.789 0.346,-0.599 0.52,-1.367 0.52,-2.299 0,-1.339 -0.427,-2.429 -1.284,-3.277 -0.853,-0.846 -1.96,-1.267 -3.32,-1.267 -1.311,0 -2.414,0.345 -3.313,1.041 -0.896,0.695 -1.482,1.654 -1.752,2.878 m -7.455,12.047 c 0.972,0 1.848,-0.181 2.635,-0.547 0.784,-0.361 1.463,-0.896 2.036,-1.603 0.61,-0.774 1.067,-1.647 1.373,-2.621 0.307,-0.973 0.458,-2.049 0.458,-3.225 0,-1.193 -0.151,-2.265 -0.455,-3.228 -0.299,-0.961 -0.761,-1.83 -1.376,-2.612 -0.56,-0.695 -1.235,-1.22 -2.025,-1.584 -0.794,-0.365 -1.667,-0.546 -2.625,-0.546 -0.959,0 -1.831,0.181 -2.619,0.546 -0.786,0.364 -1.462,0.889 -2.022,1.584 -0.622,0.787 -1.09,1.664 -1.396,2.635 -0.31,0.973 -0.465,2.045 -0.465,3.225 0,1.17 0.155,2.242 0.465,3.224 0.306,0.981 0.767,1.854 1.377,2.621 0.566,0.7 1.241,1.233 2.022,1.592 0.779,0.358 1.653,0.539 2.617,0.539 m -4.209,-7.976 c 0,-1.842 0.379,-3.297 1.14,-4.367 0.758,-1.071 1.782,-1.608 3.069,-1.608 1.282,0 2.303,0.537 3.067,1.611 0.76,1.073 1.143,2.522 1.143,4.344 0,1.824 -0.383,3.28 -1.143,4.36 -0.764,1.08 -1.785,1.621 -3.067,1.621 -1.28,0 -2.301,-0.537 -3.065,-1.612 -0.761,-1.072 -1.144,-2.525 -1.144,-4.349 m -9.561,7.64 c 1.86,0 3.261,-0.375 4.206,-1.129 0.941,-0.755 1.413,-1.875 1.413,-3.359 0,-1.309 -0.366,-2.326 -1.101,-3.057 -0.734,-0.73 -1.838,-1.171 -3.313,-1.328 l 5.876,-6.441 -2.846,0 -5.787,6.441 -1.465,0 0,-6.441 -2.193,0 0,15.314 5.21,0 z m -3.017,-6.974 1.776,0 c 1.735,0 2.934,0.189 3.595,0.572 0.662,0.383 0.993,1.033 0.993,1.953 0,0.949 -0.304,1.611 -0.914,1.979 -0.605,0.369 -1.831,0.554 -3.674,0.554 l -1.776,0 0,-5.058 z m -17.561,-8.34 0,15.314 4.383,0 c 1.153,0 2.118,-0.066 2.901,-0.197 0.788,-0.133 1.42,-0.336 1.9,-0.613 1.147,-0.662 2.02,-1.57 2.619,-2.727 0.603,-1.156 0.903,-2.51 0.903,-4.066 0,-1.559 -0.281,-2.899 -0.84,-4.026 -0.561,-1.126 -1.39,-2.033 -2.497,-2.72 -0.553,-0.342 -1.248,-0.586 -2.088,-0.739 -0.84,-0.15 -1.963,-0.226 -3.369,-0.226 l -3.912,0 z m 2.193,2.016 1.824,0 c 0.893,0 1.68,0.052 2.362,0.154 0.685,0.103 1.185,0.24 1.508,0.416 0.853,0.48 1.493,1.146 1.913,1.988 0.422,0.844 0.633,1.881 0.633,3.115 0,1.166 -0.211,2.182 -0.635,3.041 -0.425,0.864 -1.044,1.532 -1.855,1.998 -0.332,0.196 -0.823,0.336 -1.466,0.43 -0.645,0.094 -1.478,0.141 -2.509,0.141 l -1.775,0 0,-11.283 z m -5.903,-2.016 -2.193,0 0,15.314 2.193,0 0,-15.314 z m -9.753,0 -2.075,0 -5.731,15.314 2.277,0 4.525,-12.584 4.564,12.584 2.191,0 -5.751,-15.314 z"
             style="fill:#ffffff;fill-opacity:1;fill-rule:evenodd;stroke:none"
             id="path26" /></g><g
           id="g28"
           transform="translate(95.5892,62.8984)"><path
             d="m 0,0 -4.758,11.928 -21.66,0 L -26.418,0 0,0 z"
             style="fill:#ffffff;fill-opacity:1;fill-rule:evenodd;stroke:none"
             id="path30" /></g><g
           id="g32"
           transform="translate(276.9183,62.8984)"><path
             d="m 0,0 -4.758,11.928 -21.66,0 L -26.418,0 0,0 z"
             style="fill:#ffffff;fill-opacity:1;fill-rule:evenodd;stroke:none"
             id="path34" /></g></g></g></g></svg>